<?xml version="1.0"?>
<svg xmlns="http://www.w3.org/2000/svg" id="Layer_1" data-name="Layer 1" viewBox="0 0 64 64"><title>Icons8 RSL Colored Part 11</title><path d="M33.45,30.88A16.89,16.89,0,0,0,32,37.35a15.48,15.48,0,1,0,31,0C63,26.17,53.24,22.71,51.52,9l-.07-.27A67.41,67.41,0,0,1,35,11c-.65,0-2.3,2-3,2s-2.31-2-3-2A67.41,67.41,0,0,1,12.55,8.74L12.48,9C10.76,22.71,1,24,1,37.35a15.48,15.48,0,1,0,31,0" style="fill:#faefde;"/><path d="M51.59,9.44c0-.15,0-.29-.06-.44l-.07-.27A67.41,67.41,0,0,1,35,11c-.65,0-2.3,2-3,2s-2.31-2-3-2A67.41,67.41,0,0,1,12.55,8.74L12.48,9c0,.15,0,.3-.07.44C14.3,14.9,22.35,19,32,19S49.71,14.9,51.59,9.44Z" style="fill:#fff8ee;"/><circle cx="14" cy="41" r="5" style="fill:#f283a5;"/><circle cx="50" cy="41" r="5" style="fill:#f283a5;"/><path d="M30.33,41a6.83,6.83,0,0,0-5.15,2.46,15.44,15.44,0,0,1-22.43,1,15.47,15.47,0,0,0,28.65-3.09L31.09,41Z" style="fill:#efd8be;"/><path d="M62,41a7.82,7.82,0,0,0-5.88,2.58,15.44,15.44,0,0,1-22.32.91A15.46,15.46,0,0,0,62.55,41Z" style="fill:#efd8be;"/><path d="M58.73,23.55c-2.65-4-5.39-8.07-6.21-14.68a1,1,0,0,0-.09-.26.94.94,0,0,0,0-.14,1,1,0,0,0-1.22-.71A66.78,66.78,0,0,1,34.94,10c-.68,0-1.31.56-2.1,1.25-.24.21-.6.53-.84.69-.24-.17-.6-.49-.84-.7-.79-.69-1.41-1.23-2.1-1.25A66.79,66.79,0,0,1,12.81,7.77a1,1,0,0,0-1.22.71.94.94,0,0,0,0,.14,1,1,0,0,0-.09.26c-.79,6.32-3.38,9.91-5.88,13.39C2.85,26.1,0,30.07,0,37.35a16.47,16.47,0,0,0,32,5.49,16.47,16.47,0,0,0,32-5.49C64,31.45,61.44,27.61,58.73,23.55ZM47.52,51.83A14.5,14.5,0,0,1,33,37.35a15.85,15.85,0,0,1,1.33-6.08,1,1,0,0,0-1.85-.76,18,18,0,0,0-1.46,6.42,1,1,0,0,0-.1.42,14.48,14.48,0,0,1-29,0c0-6.63,2.54-10.17,5.24-13.92,2.53-3.52,5.14-7.17,6.11-13.47A68.79,68.79,0,0,0,28.9,12a9.18,9.18,0,0,1,.94.76C30.65,13.44,31.29,14,32,14s1.35-.56,2.16-1.27A9.08,9.08,0,0,1,35.1,12a68.76,68.76,0,0,0,15.56-2c1,6.6,3.87,10.89,6.41,14.7,2.65,4,4.93,7.39,4.93,12.68A14.5,14.5,0,0,1,47.52,51.83Z" style="fill:#8d6c9f;"/><path d="M14,35a6,6,0,1,0,6,6A6,6,0,0,0,14,35Zm0,10a4,4,0,1,1,4-4A4,4,0,0,1,14,45Z" style="fill:#8d6c9f;"/><circle cx="14" cy="41" r="2" style="fill:#8d6c9f;"/><path d="M50,35a6,6,0,1,0,6,6A6,6,0,0,0,50,35Zm0,10a4,4,0,1,1,4-4A4,4,0,0,1,50,45Z" style="fill:#8d6c9f;"/><circle cx="50" cy="41" r="2" style="fill:#8d6c9f;"/><path d="M32.07,17h0a1,1,0,0,0-1,1v2a1,1,0,0,0,1,1h0a1,1,0,0,0,1-1V18A1,1,0,0,0,32.07,17Z" style="fill:#8d6c9f;"/><path d="M27.28,16.39a1,1,0,0,0-1.22.71L25.54,19a1,1,0,1,0,1.93.51L28,17.61A1,1,0,0,0,27.28,16.39Z" style="fill:#8d6c9f;"/><path d="M42.67,14.84a1,1,0,0,0-1.73,1l1,1.73a1,1,0,0,0,1.73-1Z" style="fill:#8d6c9f;"/><path d="M22.8,14.57a1,1,0,0,0-1.36.37l-1,1.74a1,1,0,1,0,1.74,1l1-1.74A1,1,0,0,0,22.8,14.57Z" style="fill:#8d6c9f;"/><path d="M38.08,17.05a1,1,0,1,0-1.93.53l.53,1.93A1,1,0,0,0,38.61,19Z" style="fill:#8d6c9f;"/></svg>
